<?xml version="1.0" standalone="no"?>
<svg viewBox="0 0 200 200" xmlns="http://www.w3.org/2000/svg">
  <path fill="#06B6D4" d="M38,-58C52.2,-57.6,68.7,-53.4,78.1,-43.1C87.6,-32.8,90,-16.4,87.4,-1.5C84.8,13.4,77.1,26.8,67.3,36.3C57.4,45.9,45.2,51.6,33.7,56.3C22.1,61.1,11,64.8,-2.7,69.6C-16.5,74.3,-32.9,79.9,-47,76.6C-61,73.3,-72.7,61,-76.4,46.7C-80.1,32.4,-76,16.2,-74.4,1C-72.7,-14.3,-73.6,-28.6,-69.8,-42.9C-66.1,-57.2,-57.8,-71.4,-45.4,-72.9C-33,-74.3,-16.5,-63,-2.3,-59C11.9,-55,23.8,-58.4,38,-58Z" transform="translate(100 100)" />
</svg>
